<svg version="1.1" viewBox="0.0 0.0 961.6246719160105 203.50393700787401" fill="none" stroke="none" stroke-linecap="square" stroke-miterlimit="10" xmlns:xlink="http://www.w3.org/1999/xlink" xmlns="http://www.w3.org/2000/svg"><clipPath id="p.0"><path d="m0 0l961.6247 0l0 203.50394l-961.6247 0l0 -203.50394z" clip-rule="nonzero"/></clipPath><g clip-path="url(#p.0)"><path fill="#000000" fill-opacity="0.0" d="m0 0l961.6247 0l0 203.50394l-961.6247 0z" fill-rule="evenodd"/><path fill="#000000" fill-opacity="0.0" d="m0 0l961.6378 0l0 203.49606l-961.6378 0z" fill-rule="evenodd"/><path fill="#0b5394" d="m34.365936 120.94803l-8.75 -27.65625l7.109375 0l5.1875 18.125l4.765625 -18.125l7.046875 0l4.609375 18.125l5.28125 -18.125l7.21875 0l-8.875 27.65625l-7.03125 0l-4.765625 -17.78125l-4.6875 17.78125l-7.109375 0zm41.48033 0l-8.75 -27.65625l7.109375 0l5.1875 18.125l4.765625 -18.125l7.046875 0l4.609375 18.125l5.28125 -18.125l7.21875 0l-8.875 27.65625l-7.03125 0l-4.765625 -17.78125l-4.6875 17.78125l-7.109375 0zm41.48033 0l-8.75 -27.65625l7.109375 0l5.1875 18.125l4.765625 -18.125l7.046875 0l4.609375 18.125l5.28125 -18.125l7.21875 0l-8.875 27.65625l-7.03125 0l-4.765625 -17.78125l-4.6875 17.78125l-7.109375 0zm34.34491 0l0 -7.3125l7.3125 0l0 7.3125l-7.3125 0zm27.503769 -27.65625l0 5.828125l-5.0 0l0 11.15625q0 3.375 0.140625 3.9375q0.140625 0.5625 0.640625 0.9375q0.515625 0.359375 1.25 0.359375q1.015625 0 2.9375 -0.703125l0.625 5.671875q-2.546875 1.09375 -5.78125 1.09375q-1.984375 0 -3.578125 -0.65625q-1.578125 -0.671875 -2.328125 -1.71875q-0.734375 -1.0625 -1.015625 -2.859375q-0.234375 -1.28125 -0.234375 -5.15625l0 -12.0625l-3.359375 0l0 -5.828125l3.359375 0l0 -5.484375l7.34375 -4.28125l0 9.765625l5.0 0zm12.368057 -10.515625l0 14.03125q3.53125 -4.140625 8.453125 -4.140625q2.53125 0 4.5625 0.9375q2.03125 0.9375 3.046875 2.40625q1.03125 1.453125 1.40625 3.21875q0.390625 1.765625 0.390625 5.5l0 16.21875l-7.3125 0l0 -14.609375q0 -4.34375 -0.421875 -5.515625q-0.421875 -1.171875 -1.484375 -1.859375q-1.046875 -0.703125 -2.625 -0.703125q-1.828125 0 -3.265625 0.890625q-1.421875 0.890625 -2.09375 2.671875q-0.65625 1.78125 -0.65625 5.265625l0 13.859375l-7.328125 0l0 -38.171875l7.328125 0zm41.2937 29.375l7.28125 1.21875q-1.390625 4.015625 -4.4375 6.109375q-3.03125 2.09375 -7.578125 2.09375q-7.21875 0 -10.6875 -4.71875q-2.734375 -3.765625 -2.734375 -9.53125q0 -6.875 3.59375 -10.765625q3.59375 -3.890625 9.09375 -3.890625q6.171875 0 9.734375 4.078125q3.5625 4.078125 3.40625 12.484375l-18.328125 0q0.078125 3.25 1.765625 5.0625q1.703125 1.8125 4.234375 1.8125q1.71875 0 2.890625 -0.9375q1.171875 -0.9375 1.765625 -3.015625zm0.421875 -7.40625q-0.078125 -3.171875 -1.640625 -4.828125q-1.5625 -1.65625 -3.8125 -1.65625q-2.390625 0 -3.953125 1.75q-1.5625 1.75 -1.53125 4.734375l10.9375 0zm37.330444 -3.28125l-7.203125 1.3125q-0.375 -2.171875 -1.671875 -3.265625q-1.28125 -1.09375 -3.328125 -1.09375q-2.734375 0 -4.375 1.890625q-1.625 1.890625 -1.625 6.3125q0 4.921875 1.65625 6.953125q1.65625 2.03125 4.4375 2.03125q2.09375 0 3.421875 -1.171875q1.328125 -1.1875 1.875 -4.078125l7.171875 1.21875q-1.109375 4.953125 -4.296875 7.484375q-3.171875 2.515625 -8.5 2.515625q-6.078125 0 -9.6875 -3.828125q-3.59375 -3.828125 -3.59375 -10.59375q0 -6.859375 3.609375 -10.671875q3.625 -3.8125 9.796875 -3.8125q5.046875 0 8.03125 2.171875q2.984375 2.171875 4.28125 6.625zm29.65857 0l-7.203125 1.3125q-0.375 -2.171875 -1.671875 -3.265625q-1.28125 -1.09375 -3.328125 -1.09375q-2.734375 0 -4.375 1.890625q-1.625 1.890625 -1.625 6.3125q0 4.921875 1.65625 6.953125q1.65625 2.03125 4.4375 2.03125q2.09375 0 3.421875 -1.171875q1.328125 -1.1875 1.875 -4.078125l7.171875 1.21875q-1.109375 4.953125 -4.296875 7.484375q-3.171875 2.515625 -8.5 2.515625q-6.078125 0 -9.6875 -3.828125q-3.59375 -3.828125 -3.59375 -10.59375q0 -6.859375 3.609375 -10.671875q3.625 -3.8125 9.796875 -3.8125q5.046875 0 8.03125 2.171875q2.984375 2.171875 4.28125 6.625zm5.3460693 -8.171875l6.8125 0l0 4.0625q1.328125 -2.078125 3.59375 -3.375q2.265625 -1.3125 5.03125 -1.3125q4.8125 0 8.171875 3.78125q3.359375 3.765625 3.359375 10.515625q0 6.921875 -3.390625 10.765625q-3.375 3.84375 -8.1875 3.84375q-2.296875 0 -4.15625 -0.90625q-1.859375 -0.921875 -3.921875 -3.125l0 13.921875l-7.3125 0l0 -38.171875zm7.234375 13.359375q0 4.65625 1.84375 6.890625q1.859375 2.21875 4.515625 2.21875q2.546875 0 4.234375 -2.03125q1.703125 -2.046875 1.703125 -6.71875q0 -4.34375 -1.75 -6.453125q-1.75 -2.109375 -4.328125 -2.109375q-2.671875 0 -4.453125 2.078125q-1.765625 2.0625 -1.765625 6.125zm49.653076 -5.1875l-7.203125 1.3125q-0.375 -2.171875 -1.671875 -3.265625q-1.28125 -1.09375 -3.328125 -1.09375q-2.734375 0 -4.375 1.890625q-1.625 1.890625 -1.625 6.3125q0 4.921875 1.65625 6.953125q1.65625 2.03125 4.4375 2.03125q2.09375 0 3.421875 -1.171875q1.328125 -1.1875 1.875 -4.078125l7.171875 1.21875q-1.109375 4.953125 -4.296875 7.484375q-3.171875 2.515625 -8.5 2.515625q-6.078125 0 -9.6875 -3.828125q-3.59375 -3.828125 -3.59375 -10.59375q0 -6.859375 3.609375 -10.671875q3.625 -3.8125 9.796875 -3.8125q5.046875 0 8.03125 2.171875q2.984375 2.171875 4.28125 6.625zm3.8616943 5.265625q0 -3.640625 1.796875 -7.046875q1.796875 -3.421875 5.078125 -5.21875q3.296875 -1.796875 7.359375 -1.796875q6.28125 0 10.28125 4.078125q4.015625 4.078125 4.015625 10.296875q0 6.28125 -4.046875 10.40625q-4.046875 4.125 -10.1875 4.125q-3.8125 0 -7.265625 -1.71875q-3.4375 -1.71875 -5.234375 -5.03125q-1.796875 -3.328125 -1.796875 -8.09375zm7.5 0.390625q0 4.109375 1.953125 6.296875q1.953125 2.1875 4.8125 2.1875q2.859375 0 4.796875 -2.1875q1.953125 -2.1875 1.953125 -6.34375q0 -4.0625 -1.953125 -6.25q-1.9375 -2.1875 -4.796875 -2.1875q-2.859375 0 -4.8125 2.1875q-1.953125 2.1875 -1.953125 6.296875zm51.9187 13.828125l-7.3125 0l0 -14.109375q0 -4.484375 -0.46875 -5.796875q-0.46875 -1.3125 -1.53125 -2.046875q-1.046875 -0.734375 -2.53125 -0.734375q-1.90625 0 -3.421875 1.046875q-1.5 1.046875 -2.0625 2.765625q-0.5625 1.71875 -0.5625 6.34375l0 12.53125l-7.3125 0l0 -27.65625l6.796875 0l0 4.0625q3.609375 -4.6875 9.109375 -4.6875q2.421875 0 4.421875 0.875q2.015625 0.875 3.03125 2.234375q1.03125 1.34375 1.4375 3.0625q0.40625 1.71875 0.40625 4.921875l0 17.1875zm32.57495 0l-7.3125 0l0 -14.109375q0 -4.484375 -0.46875 -5.796875q-0.46875 -1.3125 -1.53125 -2.046875q-1.046875 -0.734375 -2.53125 -0.734375q-1.90625 0 -3.421875 1.046875q-1.5 1.046875 -2.0625 2.765625q-0.5625 1.71875 -0.5625 6.34375l0 12.53125l-7.3125 0l0 -27.65625l6.796875 0l0 4.0625q3.609375 -4.6875 9.109375 -4.6875q2.421875 0 4.421875 0.875q2.015625 0.875 3.03125 2.234375q1.03125 1.34375 1.4375 3.0625q0.40625 1.71875 0.40625 4.921875l0 17.1875zm23.434326 -8.796875l7.28125 1.21875q-1.390625 4.015625 -4.4375 6.109375q-3.03125 2.09375 -7.578125 2.09375q-7.21875 0 -10.6875 -4.71875q-2.734375 -3.765625 -2.734375 -9.53125q0 -6.875 3.59375 -10.765625q3.59375 -3.890625 9.09375 -3.890625q6.171875 0 9.734375 4.078125q3.5625 4.078125 3.40625 12.484375l-18.328125 0q0.078125 3.25 1.765625 5.0625q1.703125 1.8125 4.234375 1.8125q1.71875 0 2.890625 -0.9375q1.171875 -0.9375 1.765625 -3.015625zm0.421875 -7.40625q-0.078125 -3.171875 -1.640625 -4.828125q-1.5625 -1.65625 -3.8125 -1.65625q-2.390625 0 -3.953125 1.75q-1.5625 1.75 -1.53125 4.734375l10.9375 0zm37.330444 -3.28125l-7.203125 1.3125q-0.375 -2.171875 -1.671875 -3.265625q-1.28125 -1.09375 -3.328125 -1.09375q-2.734375 0 -4.375 1.890625q-1.625 1.890625 -1.625 6.3125q0 4.921875 1.65625 6.953125q1.65625 2.03125 4.4375 2.03125q2.09375 0 3.421875 -1.171875q1.328125 -1.1875 1.875 -4.078125l7.171875 1.21875q-1.109375 4.953125 -4.296875 7.484375q-3.171875 2.515625 -8.5 2.515625q-6.078125 0 -9.6875 -3.828125q-3.59375 -3.828125 -3.59375 -10.59375q0 -6.859375 3.609375 -10.671875q3.625 -3.8125 9.796875 -3.8125q5.046875 0 8.03125 2.171875q2.984375 2.171875 4.28125 6.625zm18.236694 -8.171875l0 5.828125l-5.0 0l0 11.15625q0 3.375 0.140625 3.9375q0.140625 0.5625 0.640625 0.9375q0.515625 0.359375 1.25 0.359375q1.015625 0 2.9375 -0.703125l0.625 5.671875q-2.546875 1.09375 -5.78125 1.09375q-1.984375 0 -3.578125 -0.65625q-1.578125 -0.671875 -2.328125 -1.71875q-0.734375 -1.0625 -1.015625 -2.859375q-0.234375 -1.28125 -0.234375 -5.15625l0 -12.0625l-3.359375 0l0 -5.828125l3.359375 0l0 -5.484375l7.34375 -4.28125l0 9.765625l5.0 0zm5.071167 -3.75l0 -6.765625l7.3125 0l0 6.765625l-7.3125 0zm0 31.40625l0 -27.65625l7.3125 0l0 27.65625l-7.3125 0zm13.128784 -14.21875q0 -3.640625 1.796875 -7.046875q1.796875 -3.421875 5.078125 -5.21875q3.296875 -1.796875 7.359375 -1.796875q6.28125 0 10.28125 4.078125q4.015625 4.078125 4.015625 10.296875q0 6.28125 -4.046875 10.40625q-4.046875 4.125 -10.1875 4.125q-3.8125 0 -7.265625 -1.71875q-3.4375 -1.71875 -5.234375 -5.03125q-1.796875 -3.328125 -1.796875 -8.09375zm7.5 0.390625q0 4.109375 1.953125 6.296875q1.953125 2.1875 4.8125 2.1875q2.859375 0 4.796875 -2.1875q1.953125 -2.1875 1.953125 -6.34375q0 -4.0625 -1.953125 -6.25q-1.9375 -2.1875 -4.796875 -2.1875q-2.859375 0 -4.8125 2.1875q-1.953125 2.1875 -1.953125 6.296875zm51.9187 13.828125l-7.3125 0l0 -14.109375q0 -4.484375 -0.46875 -5.796875q-0.46875 -1.3125 -1.53125 -2.046875q-1.046875 -0.734375 -2.53125 -0.734375q-1.90625 0 -3.421875 1.046875q-1.5 1.046875 -2.0625 2.765625q-0.5625 1.71875 -0.5625 6.34375l0 12.53125l-7.3125 0l0 -27.65625l6.796875 0l0 4.0625q3.609375 -4.6875 9.109375 -4.6875q2.421875 0 4.421875 0.875q2.015625 0.875 3.03125 2.234375q1.03125 1.34375 1.4375 3.0625q0.40625 1.71875 0.40625 4.921875l0 17.1875zm7.418701 0l0 -7.3125l7.3125 0l0 7.3125l-7.3125 0zm38.92566 -19.484375l-7.203125 1.3125q-0.375 -2.171875 -1.671875 -3.265625q-1.28125 -1.09375 -3.328125 -1.09375q-2.734375 0 -4.375 1.890625q-1.625 1.890625 -1.625 6.3125q0 4.921875 1.65625 6.953125q1.65625 2.03125 4.4375 2.03125q2.09375 0 3.421875 -1.171875q1.328125 -1.1875 1.875 -4.078125l7.171875 1.21875q-1.109375 4.953125 -4.296875 7.484375q-3.171875 2.515625 -8.5 2.515625q-6.078125 0 -9.6875 -3.828125q-3.59375 -3.828125 -3.59375 -10.59375q0 -6.859375 3.609375 -10.671875q3.625 -3.8125 9.796875 -3.8125q5.046875 0 8.03125 2.171875q2.984375 2.171875 4.28125 6.625zm3.8616943 5.265625q0 -3.640625 1.796875 -7.046875q1.796875 -3.421875 5.078125 -5.21875q3.296875 -1.796875 7.359375 -1.796875q6.28125 0 10.28125 4.078125q4.015625 4.078125 4.015625 10.296875q0 6.28125 -4.046875 10.40625q-4.046875 4.125 -10.1875 4.125q-3.8125 0 -7.265625 -1.71875q-3.4375 -1.71875 -5.234375 -5.03125q-1.796875 -3.328125 -1.796875 -8.09375zm7.5 0.390625q0 4.109375 1.953125 6.296875q1.953125 2.1875 4.8125 2.1875q2.859375 0 4.796875 -2.1875q1.953125 -2.1875 1.953125 -6.34375q0 -4.0625 -1.953125 -6.25q-1.9375 -2.1875 -4.796875 -2.1875q-2.859375 0 -4.8125 2.1875q-1.953125 2.1875 -1.953125 6.296875zm26.215576 -13.828125l6.75 0l0 3.78125q3.609375 -4.40625 8.609375 -4.40625q2.65625 0 4.609375 1.09375q1.953125 1.09375 3.203125 3.3125q1.828125 -2.21875 3.9375 -3.3125q2.109375 -1.09375 4.5 -1.09375q3.046875 0 5.15625 1.234375q2.109375 1.234375 3.15625 3.640625q0.75 1.765625 0.75 5.71875l0 17.6875l-7.3125 0l0 -15.8125q0 -4.109375 -0.765625 -5.3125q-1.015625 -1.5625 -3.125 -1.5625q-1.53125 0 -2.890625 0.9375q-1.34375 0.9375 -1.953125 2.75q-0.59375 1.8125 -0.59375 5.71875l0 13.28125l-7.3125 0l0 -15.15625q0 -4.03125 -0.390625 -5.203125q-0.390625 -1.171875 -1.21875 -1.75q-0.8125 -0.578125 -2.21875 -0.578125q-1.6875 0 -3.046875 0.921875q-1.359375 0.90625 -1.953125 2.625q-0.578125 1.71875 -0.578125 5.703125l0 13.4375l-7.3125 0l0 -27.65625zm78.34668 38.875l0 -50.046875l5.8125 0l0 50.046875l-5.8125 0zm66.9436 -18.015625l0 6.796875l-25.640625 0q0.421875 -3.859375 2.5 -7.296875q2.078125 -3.453125 8.234375 -9.15625q4.9375 -4.609375 6.0625 -6.25q1.515625 -2.265625 1.515625 -4.484375q0 -2.4375 -1.328125 -3.75q-1.3125 -1.328125 -3.625 -1.328125q-2.296875 0 -3.65625 1.390625q-1.34375 1.375 -1.546875 4.578125l-7.296875 -0.734375q0.65625 -6.03125 4.09375 -8.65625q3.4375 -2.640625 8.59375 -2.640625q5.640625 0 8.859375 3.046875q3.234375 3.046875 3.234375 7.578125q0 2.578125 -0.921875 4.90625q-0.921875 2.328125 -2.921875 4.875q-1.328125 1.703125 -4.796875 4.875q-3.453125 3.171875 -4.390625 4.21875q-0.921875 1.046875 -1.484375 2.03125l14.515625 0zm17.330444 -31.53125q5.546875 0 8.671875 3.953125q3.71875 4.6875 3.71875 15.546875q0 10.828125 -3.75 15.578125q-3.09375 3.90625 -8.640625 3.90625q-5.578125 0 -9.0 -4.28125q-3.40625 -4.296875 -3.40625 -15.28125q0 -10.78125 3.75 -15.515625q3.109375 -3.90625 8.65625 -3.90625zm0 6.0625q-1.328125 0 -2.375 0.859375q-1.046875 0.84375 -1.609375 3.03125q-0.765625 2.828125 -0.765625 9.546875q0 6.71875 0.671875 9.234375q0.6875 2.515625 1.71875 3.34375q1.03125 0.828125 2.359375 0.828125q1.328125 0 2.359375 -0.84375q1.046875 -0.84375 1.625 -3.03125q0.75 -2.8125 0.75 -9.53125q0 -6.71875 -0.6875 -9.21875q-0.671875 -2.515625 -1.703125 -3.359375q-1.015625 -0.859375 -2.34375 -0.859375zm41.986694 25.46875l0 6.796875l-25.640625 0q0.421875 -3.859375 2.5 -7.296875q2.078125 -3.453125 8.234375 -9.15625q4.9375 -4.609375 6.0625 -6.25q1.515625 -2.265625 1.515625 -4.484375q0 -2.4375 -1.328125 -3.75q-1.3125 -1.328125 -3.625 -1.328125q-2.296875 0 -3.65625 1.390625q-1.34375 1.375 -1.546875 4.578125l-7.296875 -0.734375q0.65625 -6.03125 4.09375 -8.65625q3.4375 -2.640625 8.59375 -2.640625q5.640625 0 8.859375 3.046875q3.234375 3.046875 3.234375 7.578125q0 2.578125 -0.921875 4.90625q-0.921875 2.328125 -2.921875 4.875q-1.328125 1.703125 -4.796875 4.875q-3.453125 3.171875 -4.390625 4.21875q-0.921875 1.046875 -1.484375 2.03125l14.515625 0zm23.674194 6.796875l-7.3125 0l0 -27.578125q-4.015625 3.75 -9.453125 5.546875l0 -6.640625q2.859375 -0.9375 6.21875 -3.546875q3.359375 -2.625 4.609375 -6.109375l5.9375 0l0 38.328125z" fill-rule="nonzero"/></g></svg>